HIERARCHY
ROOT Root
{
	OFFSET 0.00000 0.00000 0.00000
	CHANNELS 6 Xposition Yposition Zposition Zrotation Xrotation Yrotation
	JOINT Hips
	{
		OFFSET 0 0 0	
		CHANNELS 3 Zrotation Xrotation Yrotation
		JOINT Spine
		{
			OFFSET 0 4 0	
			CHANNELS 3 Zrotation Xrotation Yrotation
			JOINT Spine1
			{
				OFFSET 0 19.4 0	
				CHANNELS 3 Zrotation Xrotation Yrotation
				JOINT Spine2
				{
					OFFSET 0 16.6 0	
					CHANNELS 3 Zrotation Xrotation Yrotation
					JOINT LeftCollar
					{
						OFFSET 0 10 0	
						CHANNELS 3 Zrotation Xrotation Yrotation
						JOINT LeftArm
						{
							OFFSET 15.6 -2 3	
							CHANNELS 3 Zrotation Xrotation Yrotation
							JOINT LeftForeArm
							{
								OFFSET 3.5 -27 -1	
								CHANNELS 3 Zrotation Xrotation Yrotation
								JOINT LeftHand
								{
									OFFSET 1 -27 1	
									CHANNELS 3 Zrotation Xrotation Yrotation
									End Site
									{
										OFFSET 0 -15 0
									}
								}
							}
						}
					}
					JOINT RightCollar
					{
						OFFSET 0 10 0	
						CHANNELS 3 Zrotation Xrotation Yrotation
						JOINT RightArm
						{
							OFFSET -15.6 -2 3	
							CHANNELS 3 Zrotation Xrotation Yrotation
							JOINT RightForeArm
							{
								OFFSET -3.5 -27 -1	
								CHANNELS 3 Zrotation Xrotation Yrotation
								JOINT RightHand
								{
									OFFSET -1 -27 1	
									CHANNELS 3 Zrotation Xrotation Yrotation
									End Site
									{
										OFFSET 0 -15 0
									}
								}
							}
						}
					}
					JOINT Neck
					{
						OFFSET 0 10 0	
						CHANNELS 3 Zrotation Xrotation Yrotation
						JOINT Head
						{
							OFFSET 0 12.7 3	
							CHANNELS 3 Zrotation Xrotation Yrotation
							End Site
							{
								OFFSET 0 12.7 3
							}
						}
					}
				}
			}
		}
	}
	JOINT LeftHip
	{
		OFFSET 0 0 0	
		CHANNELS 3 Zrotation Xrotation Yrotation
		JOINT LeftUpLeg
		{
			OFFSET 8.8 -6 0	
			CHANNELS 3 Zrotation Xrotation Yrotation
			JOINT LeftLeg
			{
				OFFSET 0 -39 2	
				CHANNELS 3 Zrotation Xrotation Yrotation
				JOINT LeftFoot
				{
					OFFSET 0 -43 -2	
					CHANNELS 3 Zrotation Xrotation Yrotation
					JOINT LeftFootFront
					{
						OFFSET 0 -7 8.5	
						CHANNELS 3 Zrotation Xrotation Yrotation
						End Site
						{
							OFFSET 0 -0.5 9
						}
					}
				}
				JOINT LeftHeel
				{
					OFFSET 0 -43 -2	
					CHANNELS 3 Zrotation Xrotation Yrotation
					End Site
					{
						OFFSET 0 -7.5 -5
					}
				}
			}
		}
	}
	JOINT RightHip
	{
		OFFSET 0 0 0	
		CHANNELS 3 Zrotation Xrotation Yrotation
		JOINT RightUpLeg
		{
			OFFSET -8.8 -6 0	
			CHANNELS 3 Zrotation Xrotation Yrotation
			JOINT RightLeg
			{
				OFFSET 0 -39 2	
				CHANNELS 3 Zrotation Xrotation Yrotation
				JOINT RightFoot
				{
					OFFSET 0 -43 -2	
					CHANNELS 3 Zrotation Xrotation Yrotation
					JOINT RightFootFront
					{
						OFFSET 0 -7 8.5	
						CHANNELS 3 Zrotation Xrotation Yrotation
						End Site
						{
							OFFSET 0 -0.5 9
						}
					}
				}
				JOINT RightHeel
				{
					OFFSET 0 -43 -2	
					CHANNELS 3 Zrotation Xrotation Yrotation
					End Site
					{
						OFFSET 0 -7.5 -5
					}
				}
			}
		}
	}
}
MOTION
Frames: 29
Frame Time: 0.05
0 95.5 0 -0 0 -0 -1.8713 -2.9563 -42.557 -1.8805 0.89318 -10.167 -1.8805 0.89318 -10.167 -1.5907 0.72806 -8.542 -0 0 -0 2.4781 3.283 32.929 -43.505 -13.952 -47.594 14.527 -12.772 74.546 -0 0 -0 1.9239 4.5614 -108.32 34.054 55.314 116.06 -14.044 -26.512 -61.56 -1.7358 1.7291 13.218 -1.7358 1.7291 13.218 -0 0 -0 -0 0 -0 -0 0 -0 -0 0 -0 -0 0 -0 -0 0 -0 -0 0 -0 -0 0 -0 -0 0 -0 -0 0 -0 -0 0 -0 -0 0 -0 
0 95.5 0 -0 0 -0 -1.9219 -2.9571 -42.547 -1.864 0.91092 -10.165 -1.864 0.91092 -10.165 -1.5771 0.74317 -8.5408 -0 0 -0 2.4671 3.2962 32.925 -43.489 -13.945 -47.615 14.56 -12.803 74.575 -0 0 -0 1.9232 4.5396 -108.35 34.134 55.296 115.97 -13.998 -26.496 -61.534 -1.736 1.6805 13.249 -1.736 1.6805 13.248 -0 0 -0 -0 0 -0 -0 0 -0 -0 0 -0 -0 0 -0 -0 0 -0 -0 0 -0 -0 0 -0 -0 0 -0 -0 0 -0 -0 0 -0 -0 0 -0 
0 95.5 0 -0 0 -0 -1.952 -2.9561 -42.535 -1.854 0.92158 -10.176 -1.854 0.92158 -10.176 -1.5688 0.75222 -8.5501 -0 0 -0 2.4594 3.3166 32.956 -43.427 -13.944 -47.673 14.569 -12.857 74.661 -0 0 -0 1.9402 4.5233 -108.35 34.198 55.274 115.9 -13.969 -26.478 -61.522 -1.7179 1.6376 13.313 -1.7179 1.6376 13.313 -0 0 -0 -0 0 -0 -0 0 -0 -0 0 -0 -0 0 -0 -0 0 -0 -0 0 -0 -0 0 -0 -0 0 -0 -0 0 -0 -0 0 -0 -0 0 -0 
0 95.5 0 -0 0 -0 -1.9378 -2.9512 -42.524 -1.8557 0.92531 -10.178 -1.8557 0.92531 -10.178 -1.5703 0.75533 -8.5511 -0 0 -0 2.4671 3.3227 32.949 -43.398 -13.962 -47.709 14.58 -12.898 74.709 -0 0 -0 2.0097 4.4947 -108.36 34.22 55.232 115.9 -13.956 -26.468 -61.525 -1.6803 1.5829 13.346 -1.6803 1.5829 13.346 -0 0 -0 -0 0 -0 -0 0 -0 -0 0 -0 -0 0 -0 -0 0 -0 -0 0 -0 -0 0 -0 -0 0 -0 -0 0 -0 -0 0 -0 -0 0 -0 
0 95.5 0 -0 0 -0 -1.9259 -2.9524 -42.515 -1.8503 0.9448 -10.186 -1.8503 0.9448 -10.186 -1.566 0.77175 -8.5578 -0 0 -0 2.4637 3.2873 32.943 -43.368 -13.992 -47.719 14.608 -12.931 74.728 -0 0 -0 2.0654 4.4276 -108.34 34.221 55.19 115.89 -13.919 -26.484 -61.51 -1.6548 1.5127 13.366 -1.6548 1.5127 13.366 -0 0 -0 -0 0 -0 -0 0 -0 -0 0 -0 -0 0 -0 -0 0 -0 -0 0 -0 -0 0 -0 -0 0 -0 -0 0 -0 -0 0 -0 -0 0 -0 
0 95.5 0 -0 0 -0 -1.9307 -2.9606 -42.511 -1.8348 0.95278 -10.186 -1.8348 0.95278 -10.186 -1.553 0.77865 -8.5584 -0 0 -0 2.4234 3.2984 32.928 -43.355 -14.023 -47.736 14.648 -12.956 74.772 -0 0 -0 2.0813 4.4122 -108.34 34.191 55.16 115.91 -13.883 -26.517 -61.468 -1.6532 1.4764 13.374 -1.6532 1.4764 13.374 -0 0 -0 -0 0 -0 -0 0 -0 -0 0 -0 -0 0 -0 -0 0 -0 -0 0 -0 -0 0 -0 -0 0 -0 -0 0 -0 -0 0 -0 -0 0 -0 
0 95.5 0 -0 0 -0 -1.9243 -2.9714 -42.501 -1.8247 0.95977 -10.19 -1.8247 0.95977 -10.19 -1.5446 0.78463 -8.5616 -0 0 -0 2.3901 3.3035 32.922 -43.348 -14.052 -47.743 14.69 -12.978 74.785 -0 0 -0 2.0971 4.3986 -108.34 34.125 55.163 115.92 -13.892 -26.55 -61.397 -1.6506 1.4561 13.387 -1.6506 1.4561 13.387 -0 0 -0 -0 0 -0 -0 0 -0 -0 0 -0 -0 0 -0 -0 0 -0 -0 0 -0 -0 0 -0 -0 0 -0 -0 0 -0 -0 0 -0 -0 0 -0 
0 95.5 0 -0 0 -0 -1.9104 -3.0078 -42.487 -1.8369 0.96503 -10.193 -1.8369 0.96503 -10.193 -1.555 0.7889 -8.5645 -0 0 -0 2.3917 3.3391 32.916 -43.355 -14.085 -47.751 14.723 -12.996 74.809 -0 0 -0 2.1546 4.4192 -108.33 34.148 55.139 115.91 -13.896 -26.57 -61.34 -1.6277 1.4559 13.395 -1.6277 1.4559 13.395 -0 0 -0 -0 0 -0 -0 0 -0 -0 0 -0 -0 0 -0 -0 0 -0 -0 0 -0 -0 0 -0 -0 0 -0 -0 0 -0 -0 0 -0 -0 0 -0 
0 95.5 0 -0 0 -0 -1.8808 -3.0341 -42.479 -1.8525 0.96487 -10.197 -1.8525 0.96487 -10.197 -1.5681 0.78856 -8.5675 -0 0 -0 2.3986 3.3742 32.922 -43.365 -14.123 -47.784 14.749 -13 74.856 -0 0 -0 2.1933 4.4225 -108.31 34.207 55.125 115.87 -13.899 -26.598 -61.293 -1.6086 1.4583 13.394 -1.6085 1.4583 13.394 -0 0 -0 -0 0 -0 -0 0 -0 -0 0 -0 -0 0 -0 -0 0 -0 -0 0 -0 -0 0 -0 -0 0 -0 -0 0 -0 -0 0 -0 -0 0 -0 
0 95.5 0 -0 0 -0 -1.8859 -3.039 -42.468 -1.8591 0.97149 -10.197 -1.8591 0.97149 -10.197 -1.5737 0.79405 -8.5674 -0 0 -0 2.4193 3.4027 32.914 -43.379 -14.167 -47.832 14.777 -12.99 74.91 -0 0 -0 2.2326 4.4281 -108.32 34.291 55.125 115.8 -13.907 -26.58 -61.272 -1.5915 1.4591 13.381 -1.5915 1.4591 13.381 -0 0 -0 -0 0 -0 -0 0 -0 -0 0 -0 -0 0 -0 -0 0 -0 -0 0 -0 -0 0 -0 -0 0 -0 -0 0 -0 -0 0 -0 -0 0 -0 
0 95.5 0 -0 0 -0 -1.9266 -3.0574 -42.447 -1.8413 0.97425 -10.218 -1.8413 0.97425 -10.218 -1.5588 0.79654 -8.5851 -0 0 -0 2.3686 3.4431 32.973 -43.396 -14.18 -47.869 14.82 -13.005 74.934 -0 0 -0 2.191 4.4506 -108.29 34.384 55.122 115.72 -13.916 -26.564 -61.293 -1.6062 1.462 13.402 -1.6062 1.462 13.402 -0 0 -0 -0 0 -0 -0 0 -0 -0 0 -0 -0 0 -0 -0 0 -0 -0 0 -0 -0 0 -0 -0 0 -0 -0 0 -0 -0 0 -0 -0 0 -0 
0 95.5 0 -0 0 -0 -1.9408 -3.0571 -42.422 -1.8327 0.98878 -10.21 -1.8327 0.98878 -10.21 -1.5517 0.80887 -8.5786 -0 0 -0 2.3771 3.4412 32.916 -43.428 -14.215 -47.858 14.878 -13.035 74.911 -0 0 -0 2.1923 4.4281 -108.32 34.505 55.111 115.59 -13.913 -26.579 -61.335 -1.5826 1.4136 13.381 -1.5826 1.4136 13.381 -0 0 -0 -0 0 -0 -0 0 -0 -0 0 -0 -0 0 -0 -0 0 -0 -0 0 -0 -0 0 -0 -0 0 -0 -0 0 -0 -0 0 -0 -0 0 -0 
0 95.5 0 -0 0 -0 -1.9301 -3.0573 -42.392 -1.8362 1.0156 -10.219 -1.8362 1.0156 -10.219 -1.555 0.83133 -8.5861 -0 0 -0 2.4206 3.3788 32.897 -43.455 -14.249 -47.835 14.937 -13.058 74.922 -0 0 -0 2.2338 4.3679 -108.3 34.619 55.096 115.48 -13.893 -26.603 -61.359 -1.5349 1.3262 13.374 -1.5349 1.3262 13.374 -0 0 -0 -0 0 -0 -0 0 -0 -0 0 -0 -0 0 -0 -0 0 -0 -0 0 -0 -0 0 -0 -0 0 -0 -0 0 -0 -0 0 -0 -0 0 -0 
0 95.5 0 -0 0 -0 -1.9339 -3.0822 -42.363 -1.8491 1.0354 -10.227 -1.8491 1.0354 -10.227 -1.5661 0.84781 -8.5931 -0 0 -0 2.4689 3.3525 32.897 -43.477 -14.262 -47.833 14.994 -13.085 74.959 -0 0 -0 2.2786 4.3312 -108.29 34.704 55.091 115.4 -13.877 -26.627 -61.378 -1.4952 1.2557 13.359 -1.4952 1.2557 13.359 -0 0 -0 -0 0 -0 -0 0 -0 -0 0 -0 -0 0 -0 -0 0 -0 -0 0 -0 -0 0 -0 -0 0 -0 -0 0 -0 -0 0 -0 -0 0 -0 
0 95.5 0 -0 0 -0 -1.979 -3.1097 -42.348 -1.8401 1.0719 -10.232 -1.8401 1.0719 -10.232 -1.559 0.87857 -8.5975 -0 0 -0 2.4921 3.2967 32.912 -43.497 -14.259 -47.852 15.047 -13.123 74.991 -0 0 -0 2.2932 4.2661 -108.27 34.786 55.088 115.32 -13.888 -26.641 -61.385 -1.4798 1.1741 13.356 -1.4798 1.1741 13.356 -0 0 -0 -0 0 -0 -0 0 -0 -0 0 -0 -0 0 -0 -0 0 -0 -0 0 -0 -0 0 -0 -0 0 -0 -0 0 -0 -0 0 -0 -0 0 -0 
0 95.5 0 -0 0 -0 -2.0185 -3.097 -42.352 -1.8194 1.0782 -10.229 -1.8194 1.0782 -10.229 -1.5416 0.88414 -8.5949 -0 0 -0 2.5018 3.268 32.922 -43.499 -14.232 -47.87 15.083 -13.16 75.036 -0 0 -0 2.2768 4.2251 -108.29 34.795 55.097 115.28 -13.917 -26.647 -61.372 -1.4692 1.1308 13.358 -1.4692 1.1308 13.358 -0 0 -0 -0 0 -0 -0 0 -0 -0 0 -0 -0 0 -0 -0 0 -0 -0 0 -0 -0 0 -0 -0 0 -0 -0 0 -0 -0 0 -0 -0 0 -0 
0 95.5 0 -0 0 -0 -2.0333 -3.0679 -42.354 -1.8093 1.0461 -10.224 -1.8093 1.0461 -10.224 -1.5328 0.85729 -8.5901 -0 0 -0 2.5231 3.3267 32.911 -43.522 -14.219 -47.869 15.113 -13.173 75.045 -0 0 -0 2.2462 4.2703 -108.33 34.785 55.123 115.27 -13.957 -26.643 -61.363 -1.4563 1.1289 13.35 -1.4563 1.1289 13.35 -0 0 -0 -0 0 -0 -0 0 -0 -0 0 -0 -0 0 -0 -0 0 -0 -0 0 -0 -0 0 -0 -0 0 -0 -0 0 -0 -0 0 -0 -0 0 -0 
0 95.5 0 -0 0 -0 -2.0373 -3.0561 -42.346 -1.8052 0.97334 -10.214 -1.8052 0.97334 -10.214 -1.5285 0.79621 -8.5818 -0 0 -0 2.4951 3.4951 32.888 -43.564 -14.216 -47.853 15.148 -13.169 75.02 -0 0 -0 2.1636 4.4214 -108.4 34.745 55.155 115.28 -13.978 -26.672 -61.353 -1.4484 1.1761 13.333 -1.4484 1.1761 13.333 -0 0 -0 -0 0 -0 -0 0 -0 -0 0 -0 -0 0 -0 -0 0 -0 -0 0 -0 -0 0 -0 -0 0 -0 -0 0 -0 -0 0 -0 -0 0 -0 
0 95.5 0 -0 0 -0 -2.0321 -3.0589 -42.339 -1.8068 0.93047 -10.198 -1.8068 0.93047 -10.198 -1.5292 0.76021 -8.5679 -0 0 -0 2.4957 3.5796 32.872 -43.625 -14.205 -47.814 15.205 -13.179 74.984 -0 0 -0 2.0803 4.5028 -108.48 34.746 55.205 115.27 -13.983 -26.717 -61.34 -1.3851 1.1124 13.317 -1.3851 1.1124 13.317 -0 0 -0 -0 0 -0 -0 0 -0 -0 0 -0 -0 0 -0 -0 0 -0 -0 0 -0 -0 0 -0 -0 0 -0 -0 0 -0 -0 0 -0 -0 0 -0 
0 95.5 0 -0 0 -0 -2.0125 -3.0502 -42.348 -1.8111 0.89977 -10.176 -1.8111 0.89977 -10.176 -1.5325 0.73441 -8.5493 -0 0 -0 2.5293 3.6165 32.856 -43.706 -14.201 -47.744 15.278 -13.21 74.912 -0 0 -0 2.0187 4.5289 -108.52 34.795 55.24 115.21 -13.984 -26.751 -61.355 -1.3444 1.0519 13.293 -1.3444 1.0519 13.293 -0 0 -0 -0 0 -0 -0 0 -0 -0 0 -0 -0 0 -0 -0 0 -0 -0 0 -0 -0 0 -0 -0 0 -0 -0 0 -0 -0 0 -0 -0 0 -0 
0 95.5 0 -0 0 -0 -2.0005 -3.0456 -42.347 -1.8174 0.8727 -10.145 -1.8174 0.8727 -10.145 -1.5374 0.71165 -8.5238 -0 0 -0 2.5826 3.6523 32.814 -43.802 -14.203 -47.68 15.32 -13.223 74.844 -0 0 -0 1.9813 4.5722 -108.55 34.889 55.259 115.13 -13.979 -26.758 -61.345 -1.2981 0.9645 13.254 -1.2981 0.9645 13.254 -0 0 -0 -0 0 -0 -0 0 -0 -0 0 -0 -0 0 -0 -0 0 -0 -0 0 -0 -0 0 -0 -0 0 -0 -0 0 -0 -0 0 -0 -0 0 -0 
0 95.5 0 -0 0 -0 -2.0156 -3.0689 -42.324 -1.8358 0.86032 -10.11 -1.8358 0.86032 -10.11 -1.5527 0.70111 -8.4946 -0 0 -0 2.661 3.6926 32.758 -43.894 -14.209 -47.643 15.361 -13.218 74.789 -0 0 -0 1.9469 4.6251 -108.58 35 55.304 115.05 -13.998 -26.741 -61.333 -1.2348 0.84779 13.211 -1.2348 0.84779 13.211 -0 0 -0 -0 0 -0 -0 0 -0 -0 0 -0 -0 0 -0 -0 0 -0 -0 0 -0 -0 0 -0 -0 0 -0 -0 0 -0 -0 0 -0 -0 0 -0 
0 95.5 0 -0 0 -0 -2.015 -3.0885 -42.294 -1.8569 0.8113 -10.083 -1.8569 0.8113 -10.083 -1.5698 0.65972 -8.4714 -0 0 -0 2.7095 3.7998 32.743 -43.978 -14.191 -47.612 15.412 -13.22 74.745 -0 0 -0 1.862 4.7398 -108.61 35.084 55.376 114.96 -14.022 -26.72 -61.337 -1.1632 0.70899 13.183 -1.1632 0.70899 13.183 -0 0 -0 -0 0 -0 -0 0 -0 -0 0 -0 -0 0 -0 -0 0 -0 -0 0 -0 -0 0 -0 -0 0 -0 -0 0 -0 -0 0 -0 -0 0 -0 
0 95.5 0 -0 0 -0 -2.0278 -3.0925 -42.265 -1.859 0.79013 -10.041 -1.859 0.79013 -10.041 -1.5712 0.642 -8.4361 -0 0 -0 2.7499 3.8063 32.718 -44.029 -14.137 -47.605 15.478 -13.244 74.74 -0 0 -0 1.7999 4.7647 -108.69 35.144 55.427 114.9 -14.045 -26.704 -61.34 -1.0451 0.38483 13.13 -1.0451 0.38483 13.13 -0 0 -0 -0 0 -0 -0 0 -0 -0 0 -0 -0 0 -0 -0 0 -0 -0 0 -0 -0 0 -0 -0 0 -0 -0 0 -0 -0 0 -0 -0 0 -0 
0 95.5 0 -0 0 -0 -2.0501 -3.1013 -42.231 -1.8903 0.82725 -9.9694 -1.8903 0.82725 -9.9694 -1.598 0.67297 -8.3761 -0 0 -0 2.9085 3.7256 32.579 -44.056 -14.13 -47.576 15.535 -13.289 74.718 -0 0 -0 1.8815 4.7179 -108.84 35.235 55.46 114.83 -14.044 -26.694 -61.384 -0.79742 -0.18856 13.027 -0.79742 -0.18856 13.027 -0 0 -0 -0 0 -0 -0 0 -0 -0 0 -0 -0 0 -0 -0 0 -0 -0 0 -0 -0 0 -0 -0 0 -0 -0 0 -0 -0 0 -0 -0 0 -0 
0 95.5 0 -0 0 -0 -2.0054 -3.1101 -42.135 -1.9219 0.80266 -9.9483 -1.9219 0.80266 -9.9483 -1.6242 0.652 -8.3584 -0 0 -0 2.9845 3.787 32.485 -44.101 -14.215 -47.532 15.569 -13.258 74.666 -0 0 -0 1.885 4.7967 -108.88 35.302 55.49 114.79 -14.026 -26.703 -61.393 -0.52949 -0.89241 12.988 -0.52949 -0.89241 12.988 -0 0 -0 -0 0 -0 -0 0 -0 -0 0 -0 -0 0 -0 -0 0 -0 -0 0 -0 -0 0 -0 -0 0 -0 -0 0 -0 -0 0 -0 -0 0 -0 
0 95.5 0 -0 0 -0 -1.9641 -3.1233 -42.063 -1.9425 0.79638 -9.9117 -1.9425 0.79638 -9.9117 -1.6414 0.64656 -8.3276 -0 0 -0 3.0516 3.7656 32.409 -44.181 -14.325 -47.515 15.634 -13.154 74.658 -0 0 -0 1.8687 4.8053 -108.95 35.325 55.574 114.79 -13.996 -26.736 -61.391 -0.22481 -1.816 13.002 -0.22481 -1.816 13.002 -0 0 -0 -0 0 -0 -0 0 -0 -0 0 -0 -0 0 -0 -0 0 -0 -0 0 -0 -0 0 -0 -0 0 -0 -0 0 -0 -0 0 -0 -0 0 -0 
0 95.5 0 -0 0 -0 -1.9013 -3.146 -41.957 -1.9672 0.76359 -9.8749 -1.9672 0.76359 -9.8749 -1.6617 0.61881 -8.2967 -0 0 -0 3.0878 3.7893 32.314 -44.32 -14.502 -47.498 15.731 -13.037 74.612 -0 0 -0 1.8258 4.842 -109.05 35.351 55.675 114.75 -13.991 -26.766 -61.394 0.088543 -2.7785 13.088 0.088543 -2.7785 13.088 -0 0 -0 -0 0 -0 -0 0 -0 -0 0 -0 -0 0 -0 -0 0 -0 -0 0 -0 -0 0 -0 -0 0 -0 -0 0 -0 -0 0 -0 -0 0 -0 
0 95.5 0 -0 0 -0 -1.8192 -3.1867 -41.793 -1.9991 0.71643 -9.8458 -1.9991 0.71643 -9.8458 -1.688 0.57887 -8.2722 -0 0 -0 3.1197 3.8008 32.232 -44.49 -14.689 -47.468 15.83 -12.967 74.528 -0 0 -0 1.7606 4.8761 -109.14 35.377 55.792 114.67 -13.953 -26.832 -61.383 0.33694 -3.6224 13.227 0.33694 -3.6224 13.227 -0 0 -0 -0 0 -0 -0 0 -0 -0 0 -0 -0 0 -0 -0 0 -0 -0 0 -0 -0 0 -0 -0 0 -0 -0 0 -0 -0 0 -0 -0 0 -0 
